<svg width="32" height="32" viewBox="0 0 32 32" fill="none" xmlns="http://www.w3.org/2000/svg">
<path d="M30.8636 2.28446C30.6514 1.88455 30.3144 1.55963 29.915 1.35968C28.3861 0.55988 26.3205 0.784826 15.4682 5.28997C2.40049 10.7136 1.91996 11.2697 1.39576 12.1258C0.653136 13.1443 0.952681 14.7377 2.31936 15.2813L8.22915 17.6494L11.7488 19.0678C12.273 19.2803 12.6974 19.6927 12.9096 20.2176L14.2325 23.4293L16.7475 29.5028C17.2717 30.765 18.7195 31.1024 19.7492 30.5463C19.7492 30.5463 19.8178 30.515 19.849 30.4963C19.8615 30.4963 19.8802 30.4838 19.8865 30.4713C20.8101 29.9277 21.2344 29.8027 26.9071 16.556C31.5313 5.76485 31.706 3.79034 30.8698 2.28446H30.8636ZM22.3265 16.8309C19.7367 18.1618 16.5353 17.1683 15.1873 14.6189C13.8332 12.0633 14.8379 8.91408 17.4277 7.58941C20.0175 6.25223 23.2189 7.23949 24.5731 9.79511C25.9211 12.3507 24.9163 15.5 22.3265 16.8371V16.8309Z" fill="#3981F1"/>
<path d="M13.0464 23.4355C13.2336 23.9104 13.0027 24.4478 12.5222 24.6477L5.15836 27.7157C4.44694 28.0344 3.73552 27.2908 4.09747 26.6222L7.10541 19.3053C7.30511 18.8117 7.87924 18.5805 8.37224 18.7929L10.9683 19.8926C11.4863 20.1176 11.9106 20.5362 12.1103 21.0611L13.0402 23.4418L13.0464 23.4355Z" fill="#FF4A37"/>
</svg>
